# xmcd
#
# Track frame offsets: 
#        150
#        12653
#        21530
#        32305
#        43678
#        55916
#        67443
#        80158
#        91114
#        101333
#        111031
#        124077
#        133876
#        147441
#        160519
#        172844
#        184437
#        195097
#        207338
#        220587
#
# Disc length: 3076 seconds
#
# Revision: 1
# Processed by: cddbd v1.5.2PL0 Copyright (c) Steve Scherf et al.
# Submitted via: ExactAudioCopyFreeDBPlugin 1.0
#
DISCID=1b0c0214
DTITLE=Dean Martin - Dean Martin - Icon
DYEAR=2012
DGENRE=Oldies
TTITLE0=Everybody Loves Somebody
TTITLE1=You're Nobody 'Til Somebody Loves You
TTITLE2=I Will
TTITLE3=Send Me The Pillow You Dream On
TTITLE4=Houston
TTITLE5=In The Chapel In The Moonlight
TTITLE6=Little Ole Wine Drinker Me
TTITLE7=(Remember Me) I'm The One Who Loves You
TTITLE8=Somewhere There's A Someone
TTITLE9=Come Running Back
TTITLE10=The Door Is Still Open (To My Heart)
TTITLE11=Every Minute, Every Hour
TTITLE12=Baby-O
TTITLE13=C'est Si Bon
TTITLE14=Amor Mio
TTITLE15=She's A Little Bit Of Country
TTITLE16=Lay Some Happiness On Me
TTITLE17=Corrine, Corrina
TTITLE18=A Million And One
TTITLE19=Gimme A Little Kiss, Will Ya, Huh?
EXTD=
EXTT0=
EXTT1=
EXTT2=
EXTT3=
EXTT4=
EXTT5=
EXTT6=
EXTT7=
EXTT8=
EXTT9=
EXTT10=
EXTT11=
EXTT12=
EXTT13=
EXTT14=
EXTT15=
EXTT16=
EXTT17=
EXTT18=
EXTT19=
PLAYORDER=
